# xmcd
#
# Track frame offsets:
#	150
#	15532
#	30895
#	45820
#	61220
#	79385
#	99507
#	119202
#	132110
#	148135
#	164867
#
# Disc length: 2416 seconds
#
# Revision: 12
# Processed by: cddbd v1.5.2PL0 Copyright (c) Steve Scherf et al.
# Submitted via: audiograbber 1.83.01
#
DISCID=91096e0b
DTITLE=Kenny Chesney - I Will Stand
DYEAR=1997
DGENRE=Country
TTITLE0=She's Got It All
TTITLE1=You Win, I Win, We Lose
TTITLE2=She Gets That Way
TTITLE3=I Will Stand
TTITLE4=That's Why I'm Here
TTITLE5=Steamy Windows
TTITLE6=From Hillbilly Heaven To Honky Tonk Hell (featuring George Jones and Tr
TTITLE6=acy Lawrence)
TTITLE7=She Always Says It First
TTITLE8=Lonely, Needin' Lovin'
TTITLE9=A Chance
TTITLE10=When I Close My Eyes (Acoustic Version)
EXTD=
EXTT0=
EXTT1=
EXTT2=
EXTT3=
EXTT4=
EXTT5=
EXTT6=
EXTT7=
EXTT8=
EXTT9=
EXTT10=
PLAYORDER=
